<?xml version="1.0" encoding="utf-8"?>
<!-- Generator: Adobe Illustrator 23.0.4, SVG Export Plug-In . SVG Version: 6.00 Build 0)  -->
<svg version="1.1" id="flag-icon-css-de" xmlns="http://www.w3.org/2000/svg" xmlns:xlink="http://www.w3.org/1999/xlink" x="0px"
	 y="0px" viewBox="0 0 640 480" style="enable-background:new 0 0 640 480;" xml:space="preserve">
<style type="text/css">
	.st0{fill:#CF142B;}
	.st1{fill:#00247D;}
	.st2{fill:#FFCC00;}
	.st3{fill:#FFFFFF;}
</style>
<path class="st0" d="M0,320h640v160H0V320z"/>
<path class="st1" d="M0,160h640v160H0V160z"/>
<path class="st2" d="M0,0h640v160H0V0z"/>
<polygon class="st3" points="351.8,197.8 364.8,191.4 350.5,188.9 348.5,174.5 341.7,187.3 327.3,184.8 337.4,195.3 330.6,208.1 
	343.7,201.7 353.8,212.2 "/>
<polygon class="st3" points="397.1,217 411.6,215.5 399,208.2 402,194 391.2,203.7 378.6,196.4 384.5,209.7 373.7,219.4 
	388.2,217.9 394.1,231.2 "/>
<polygon class="st3" points="433.2,250.5 447.3,254 437.9,242.9 445.6,230.6 432.2,236 422.8,224.9 423.8,239.4 410.4,244.8 
	424.5,248.3 425.5,262.8 "/>
<polygon class="st3" points="462.7,288.9 474.1,279.9 459.6,280.4 454.6,266.8 450.6,280.7 436.1,281.2 448.1,289.4 444.1,303.3 
	455.6,294.4 467.6,302.5 "/>
<polygon class="st3" points="191.9,289.4 203.9,281.2 189.4,280.7 185.4,266.8 180.4,280.4 165.9,279.9 177.3,288.9 172.4,302.5 
	184.4,294.4 195.9,303.3 "/>
<polygon class="st3" points="215.5,248.3 229.6,244.8 216.2,239.4 217.2,224.9 207.8,236 194.4,230.6 202.1,242.9 192.7,254 
	206.8,250.5 214.5,262.8 "/>
<polygon class="st3" points="251.8,217.9 266.3,219.4 255.5,209.7 261.4,196.4 248.8,203.7 238,194 241,208.2 228.4,215.5 
	242.9,217 245.9,231.2 "/>
<polygon class="st3" points="302.6,195.3 312.7,184.8 298.3,187.3 291.5,174.5 289.5,188.9 275.2,191.4 288.2,197.8 286.2,212.2 
	296.3,201.7 309.4,208.1 "/>
</svg>
