<?xml version="1.0" standalone="no"?>
<!DOCTYPE svg PUBLIC "-//W3C//DTD SVG 20010904//EN"
 "http://www.w3.org/TR/2001/REC-SVG-20010904/DTD/svg10.dtd">
<svg version="1.0" xmlns="http://www.w3.org/2000/svg"
 width="512.000000pt" height="512.000000pt" viewBox="0 0 512.000000 512.000000"
 preserveAspectRatio="xMidYMid meet">
<metadata>
Created by potrace 1.11, written by Peter Selinger 2001-2013
</metadata>
<g transform="translate(0.000000,512.000000) scale(0.100000,-0.100000)"
fill="#000000" stroke="none">
<path d="M2333 5100 c-205 -20 -505 -89 -673 -155 -700 -276 -1208 -784 -1485
-1485 -46 -117 -116 -395 -141 -555 -25 -168 -25 -522 0 -690 25 -160 95 -438
141 -555 277 -702 783 -1208 1485 -1485 117 -46 395 -116 555 -141 168 -25
522 -25 690 0 160 25 438 95 555 141 702 277 1208 783 1485 1485 46 117 116
395 141 555 25 168 25 522 0 690 -25 160 -95 438 -141 555 -277 702 -783 1208
-1485 1485 -117 46 -396 117 -550 139 -135 20 -446 29 -577 16z m447 -650 c19
-19 20 -33 20 -219 l0 -200 -26 -20 c-25 -20 -40 -21 -214 -21 -174 0 -189 1
-214 21 l-26 20 0 200 c0 186 1 200 20 219 19 19 33 20 220 20 187 0 201 -1
220 -20z m235 -669 c175 -50 322 -136 451 -265 129 -130 205 -257 260 -441 26
-84 28 -103 28 -270 0 -167 -2 -186 -28 -270 -55 -184 -131 -311 -260 -441
-130 -129 -277 -216 -451 -265 -73 -20 -107 -23 -371 -27 -260 -3 -293 -2
-308 13 -15 15 -16 84 -16 776 l0 759 240 0 240 0 0 -525 c0 -517 0 -525 21
-546 16 -16 27 -19 52 -13 107 23 229 94 297 172 78 90 140 252 140 367 0 69
-28 177 -66 254 -49 99 -136 186 -235 235 -122 60 -180 67 -516 64 -278 -3
-295 -4 -309 -22 -12 -17 -14 -207 -14 -1272 0 -1125 -2 -1254 -16 -1268 -13
-14 -48 -16 -228 -16 -151 0 -215 3 -224 12 -9 9 -12 356 -12 1499 0 1356 1
1489 16 1504 15 14 75 16 623 13 597 -4 607 -4 686 -27z"/>
</g>
</svg>
